<?xml version="1.0" standalone="no"?>
<!DOCTYPE svg PUBLIC "-//W3C//DTD SVG 20010904//EN"
 "http://www.w3.org/TR/2001/REC-SVG-20010904/DTD/svg10.dtd">
<svg version="1.0" xmlns="http://www.w3.org/2000/svg"
 width="70.000000pt" height="70.000000pt" viewBox="0 0 70.000000 70.000000"
 preserveAspectRatio="xMidYMid meet">
<metadata>
Created by potrace 1.11, written by Peter Selinger 2001-2013
</metadata>
<g transform="translate(0.000000,70.000000) scale(0.100000,-0.100000)"
fill="#000000" stroke="none">
<path d="M330 639 c0 -5 -6 -9 -14 -9 -8 0 -16 -6 -18 -12 -3 -7 -11 -13 -19
-13 -8 0 -54 -20 -102 -45 -109 -55 -102 -68 32 -64 50 2 93 -1 96 -5 8 -15
-25 -70 -56 -91 -26 -19 -29 -19 -29 -4 0 14 -6 16 -36 11 -44 -7 -74 -32 -74
-61 0 -12 -8 -26 -19 -33 -25 -16 -31 -54 -14 -93 7 -18 13 -42 13 -54 1 -24
24 -59 33 -49 4 3 7 0 7 -9 0 -16 2 -17 80 -22 30 -2 56 -5 58 -6 1 -1 6 -3
11 -4 6 0 15 -6 22 -13 10 -10 16 -8 31 9 10 12 18 18 18 13 0 -4 8 3 19 16
10 13 17 29 14 35 -2 6 9 14 25 17 42 9 89 62 97 111 10 56 12 59 45 40 34
-20 61 -13 55 15 -2 11 7 35 19 54 28 41 21 69 -23 87 -25 10 -34 10 -46 0 -9
-7 -13 -20 -10 -28 4 -10 0 -12 -11 -8 -8 3 -18 6 -20 6 -2 0 -4 7 -4 16 0 22
-23 12 -37 -16 l-11 -23 -26 28 c-36 39 -34 62 5 63 17 0 33 3 36 5 2 3 18 1
35 -4 21 -6 41 -4 63 6 19 7 35 13 37 12 2 -1 -6 6 -17 15 -11 10 -30 18 -42
18 -13 0 -32 9 -43 20 -20 20 -59 40 -88 46 -7 1 -16 -4 -19 -12 -7 -20 -23
-18 -23 4 0 9 -11 22 -25 29 -14 6 -25 7 -25 2z"/>
</g>
</svg>
